<mxfile host="65bd71144e">
    <diagram id="tuVAxtuFO_VLGwJdfk8Z" name="Page-1">
        <mxGraphModel dx="864" dy="676" grid="1" gridSize="10" guides="1" tooltips="1" connect="1" arrows="1" fold="1" page="1" pageScale="1" pageWidth="850" pageHeight="1100" background="#F1FAEE" math="0" shadow="0">
            <root>
                <mxCell id="0"/>
                <mxCell id="1" parent="0"/>
                <mxCell id="5" style="edgeStyle=orthogonalEdgeStyle;curved=0;rounded=1;sketch=0;orthogonalLoop=1;jettySize=auto;html=1;exitX=0.5;exitY=1;exitDx=0;exitDy=0;entryX=0.5;entryY=0;entryDx=0;entryDy=0;fontColor=#1D3557;strokeColor=#6F0000;fillColor=#a20025;" edge="1" parent="1" source="6" target="7">
                    <mxGeometry relative="1" as="geometry"/>
                </mxCell>
                <mxCell id="6" value="class Lava&lt;br&gt;(pygame.sprite.&lt;br&gt;Sprite):" style="rounded=1;whiteSpace=wrap;html=1;sketch=0;fontColor=#ffffff;strokeColor=#2D7600;fillColor=#60a917;arcSize=50;" vertex="1" parent="1">
                    <mxGeometry x="375" y="50" width="120" height="60" as="geometry"/>
                </mxCell>
                <mxCell id="28" style="edgeStyle=orthogonalEdgeStyle;curved=0;rounded=1;sketch=0;orthogonalLoop=1;jettySize=auto;html=1;exitX=0.5;exitY=1;exitDx=0;exitDy=0;entryX=0.5;entryY=0;entryDx=0;entryDy=0;fontColor=#1D3557;strokeColor=#6F0000;fillColor=#a20025;" edge="1" parent="1" source="7" target="27">
                    <mxGeometry relative="1" as="geometry"/>
                </mxCell>
                <mxCell id="7" value="def __init__(self, x, y):" style="rounded=1;whiteSpace=wrap;html=1;sketch=0;fontColor=#ffffff;strokeColor=#2D7600;fillColor=#60a917;arcSize=50;" vertex="1" parent="1">
                    <mxGeometry x="375" y="150" width="120" height="60" as="geometry"/>
                </mxCell>
                <mxCell id="17" style="edgeStyle=orthogonalEdgeStyle;curved=0;rounded=1;sketch=0;orthogonalLoop=1;jettySize=auto;html=1;exitX=0.5;exitY=1;exitDx=0;exitDy=0;entryX=0.5;entryY=0;entryDx=0;entryDy=0;fontColor=#1D3557;strokeColor=#6F0000;fillColor=#a20025;" edge="1" parent="1" source="13" target="14">
                    <mxGeometry relative="1" as="geometry"/>
                </mxCell>
                <mxCell id="13" value="self.image = pygame.transform.&lt;br&gt;scale(img, (tile_size, tile_size//2))" style="rounded=0;whiteSpace=wrap;html=1;sketch=0;fontColor=#ffffff;strokeColor=#2D7600;fillColor=#60a917;" vertex="1" parent="1">
                    <mxGeometry x="375" y="480" width="120" height="60" as="geometry"/>
                </mxCell>
                <mxCell id="19" style="edgeStyle=orthogonalEdgeStyle;curved=0;rounded=1;sketch=0;orthogonalLoop=1;jettySize=auto;html=1;exitX=0.5;exitY=1;exitDx=0;exitDy=0;fontColor=#1D3557;strokeColor=#6F0000;fillColor=#a20025;" edge="1" parent="1" source="14" target="18">
                    <mxGeometry relative="1" as="geometry"/>
                </mxCell>
                <mxCell id="14" value="self.rect = self.image.get_rect()" style="rounded=0;whiteSpace=wrap;html=1;sketch=0;fontColor=#ffffff;strokeColor=#2D7600;fillColor=#60a917;" vertex="1" parent="1">
                    <mxGeometry x="375.01" y="590" width="120" height="60" as="geometry"/>
                </mxCell>
                <mxCell id="16" style="edgeStyle=orthogonalEdgeStyle;curved=0;rounded=1;sketch=0;orthogonalLoop=1;jettySize=auto;html=1;exitX=0.5;exitY=1;exitDx=0;exitDy=0;exitPerimeter=0;fontColor=#1D3557;strokeColor=#6F0000;fillColor=#a20025;" edge="1" parent="1" source="15" target="13">
                    <mxGeometry relative="1" as="geometry"/>
                </mxCell>
                <mxCell id="15" value="self.image = pygame.image.load&lt;br&gt;('images/lava.png')" style="strokeWidth=2;html=1;shape=mxgraph.flowchart.display;whiteSpace=wrap;rounded=0;sketch=0;fontColor=#ffffff;fillColor=#60a917;strokeColor=#2D7600;" vertex="1" parent="1">
                    <mxGeometry x="376.67" y="380" width="116.67" height="70" as="geometry"/>
                </mxCell>
                <mxCell id="21" style="edgeStyle=orthogonalEdgeStyle;curved=0;rounded=1;sketch=0;orthogonalLoop=1;jettySize=auto;html=1;exitX=0.5;exitY=1;exitDx=0;exitDy=0;entryX=0.5;entryY=0;entryDx=0;entryDy=0;fontColor=#1D3557;strokeColor=#6F0000;fillColor=#a20025;" edge="1" parent="1" source="18" target="20">
                    <mxGeometry relative="1" as="geometry"/>
                </mxCell>
                <mxCell id="18" value="self.rect.x = x" style="rounded=0;whiteSpace=wrap;html=1;sketch=0;fontColor=#ffffff;strokeColor=#2D7600;fillColor=#60a917;" vertex="1" parent="1">
                    <mxGeometry x="375.01" y="690" width="120" height="60" as="geometry"/>
                </mxCell>
                <mxCell id="24" style="edgeStyle=orthogonalEdgeStyle;curved=0;rounded=1;sketch=0;orthogonalLoop=1;jettySize=auto;html=1;exitX=0.5;exitY=1;exitDx=0;exitDy=0;entryX=0.5;entryY=0;entryDx=0;entryDy=0;fontColor=#1D3557;strokeColor=#6F0000;fillColor=#a20025;" edge="1" parent="1" source="20" target="22">
                    <mxGeometry relative="1" as="geometry"/>
                </mxCell>
                <mxCell id="20" value="self.rect.y = y" style="rounded=0;whiteSpace=wrap;html=1;sketch=0;fontColor=#ffffff;strokeColor=#2D7600;fillColor=#60a917;" vertex="1" parent="1">
                    <mxGeometry x="375.01" y="800" width="120" height="60" as="geometry"/>
                </mxCell>
                <mxCell id="26" style="edgeStyle=orthogonalEdgeStyle;curved=0;rounded=1;sketch=0;orthogonalLoop=1;jettySize=auto;html=1;exitX=0.5;exitY=1;exitDx=0;exitDy=0;entryX=0.5;entryY=0;entryDx=0;entryDy=0;fontColor=#1D3557;strokeColor=#6F0000;fillColor=#a20025;" edge="1" parent="1" source="22" target="25">
                    <mxGeometry relative="1" as="geometry"/>
                </mxCell>
                <mxCell id="22" value="self.move_direction = 1" style="rounded=0;whiteSpace=wrap;html=1;sketch=0;fontColor=#ffffff;strokeColor=#2D7600;fillColor=#60a917;" vertex="1" parent="1">
                    <mxGeometry x="375" y="890" width="120" height="60" as="geometry"/>
                </mxCell>
                <mxCell id="25" value="self.move_counter = 0" style="rounded=0;whiteSpace=wrap;html=1;sketch=0;fontColor=#ffffff;strokeColor=#2D7600;fillColor=#60a917;" vertex="1" parent="1">
                    <mxGeometry x="375" y="980" width="120" height="60" as="geometry"/>
                </mxCell>
                <mxCell id="29" style="edgeStyle=orthogonalEdgeStyle;curved=0;rounded=1;sketch=0;orthogonalLoop=1;jettySize=auto;html=1;exitX=0.5;exitY=1;exitDx=0;exitDy=0;entryX=0.5;entryY=0;entryDx=0;entryDy=0;entryPerimeter=0;fontColor=#1D3557;strokeColor=#6F0000;fillColor=#a20025;" edge="1" parent="1" source="27" target="15">
                    <mxGeometry relative="1" as="geometry"/>
                </mxCell>
                <mxCell id="27" value="pygame.&lt;br&gt;sprite.&lt;br&gt;Sprite.__init__&lt;br&gt;(self)" style="shape=parallelogram;html=1;strokeWidth=2;perimeter=parallelogramPerimeter;whiteSpace=wrap;rounded=1;arcSize=12;size=0.23;sketch=0;fontColor=#ffffff;fillColor=#60a917;strokeColor=#2D7600;" vertex="1" parent="1">
                    <mxGeometry x="376.67" y="260" width="116.66" height="70" as="geometry"/>
                </mxCell>
            </root>
        </mxGraphModel>
    </diagram>
</mxfile>